<svg width="64" height="64" viewBox="0 0 64 64" fill="none" xmlns="http://www.w3.org/2000/svg">
<mask id="path-1-inside-1_372_52" fill="white">
<path fill-rule="evenodd" clip-rule="evenodd" d="M32.2897 17.7534L33.7548 19.9885L36.1437 18.7903C37.1501 18.2855 38.2874 18 39.5 18C43.2774 18 46.4071 20.7954 46.9246 24.4295L47.2792 26.9202L49.7935 27.0049C54.351 27.1586 58 30.9038 58 35.5C58 38.5782 56.3637 41.2743 53.9135 42.7658C53.048 41.9343 51.9538 41.3392 50.7346 41.0843C49.9014 38.1496 47.2017 36 44 36C42.2569 36 40.6625 36.6372 39.4372 37.6913C38.1234 36.6333 36.4532 36.0001 34.6351 36.0001C31.2193 36.0001 28.3256 38.2352 27.3367 41.3226C25.9466 41.8177 24.7738 42.7707 23.9997 44H14.5C9.80558 44 6 40.1944 6 35.5C6 31.9707 8.1517 28.937 11.2266 27.6524L13.2802 26.7944L13.0547 24.5802C13.0186 24.226 13 23.8656 13 23.5C13 17.701 17.701 13 23.5 13C27.1738 13 30.4091 14.8844 32.2897 17.7534ZM23.0169 47H14.5C8.14873 47 3 41.8513 3 35.5C3 30.7187 5.91789 26.6189 10.0701 24.8842C10.0237 24.4291 10 23.9673 10 23.5C10 16.0442 16.0442 10 23.5 10C28.2274 10 32.3872 12.4298 34.7987 16.1087C36.2131 15.3993 37.8099 15 39.5 15C44.792 15 49.1696 18.915 49.8946 24.0066C56.0632 24.2146 61 29.2808 61 35.5C61 39.6343 58.8183 43.2591 55.5434 45.2859C55.7866 45.9696 55.9189 46.7059 55.9189 47.473C55.9189 51.0778 52.9967 54.0001 49.3919 54.0001H29.527C25.9222 54.0001 23 51.0778 23 47.473C23 47.314 23.0057 47.1562 23.0169 47Z"/>
</mask>
<path d="M33.7548 19.9885L31.2458 21.6332L32.711 23.8683L35.0999 22.6701L33.7548 19.9885ZM32.2897 17.7534L34.7987 16.1087L32.2897 17.7534ZM36.1437 18.7903L37.4888 21.4719L36.1437 18.7903ZM46.9246 24.4295L49.8946 24.0066L46.9246 24.4295ZM47.2792 26.9202L44.3092 27.3431L44.6638 29.8337L47.1781 29.9185L47.2792 26.9202ZM49.7935 27.0049L49.6924 30.0032H49.6924L49.7935 27.0049ZM53.9135 42.7658L51.835 44.9291L53.5005 46.5294L55.4734 45.3284L53.9135 42.7658ZM50.7346 41.0843L47.8487 41.9036L48.3443 43.6493L50.1206 44.0207L50.7346 41.0843ZM39.4372 37.6913L37.5556 40.0278L39.5006 41.5941L41.3937 39.9655L39.4372 37.6913ZM27.3367 41.3226L28.3432 44.1487L29.7411 43.6509L30.1937 42.2377L27.3367 41.3226ZM23.9997 44V47H25.6559L26.5384 45.5985L23.9997 44ZM11.2266 27.6524L10.0701 24.8842L11.2266 27.6524ZM13.2802 26.7944L14.4366 29.5625L16.4902 28.7046L16.2647 26.4904L13.2802 26.7944ZM13.0547 24.5802L16.0392 24.2763V24.2763L13.0547 24.5802ZM23.0169 47L26.0092 47.2143L26.2394 44H23.0169V47ZM10.0701 24.8842L11.2266 27.6524L13.2802 26.7944L13.0547 24.5802L10.0701 24.8842ZM34.7987 16.1087L32.2897 17.7534L33.7548 19.9885L36.1437 18.7903L34.7987 16.1087ZM49.8946 24.0066L46.9246 24.4295L47.2792 26.9202L49.7935 27.0049L49.8946 24.0066ZM55.5434 45.2859L53.9647 42.7349L51.9055 44.0093L52.7168 46.2909L55.5434 45.2859ZM36.2638 18.3439L34.7987 16.1087L29.7807 19.398L31.2458 21.6332L36.2638 18.3439ZM34.7987 16.1087L32.4098 17.307L35.0999 22.6701L37.4888 21.4719L34.7987 16.1087ZM39.5 15C37.81 15 36.2132 15.3993 34.7987 16.1087L37.4888 21.4719C38.0871 21.1718 38.7648 21 39.5 21V15ZM49.8946 24.0066C49.1693 18.913 44.79 15 39.5 15V21C41.7649 21 43.6449 22.6779 43.9545 24.8524L49.8946 24.0066ZM50.2492 26.4973L49.8946 24.0066L43.9545 24.8524L44.3092 27.3431L50.2492 26.4973ZM49.8946 24.0066L47.3803 23.9219L47.1781 29.9185L49.6924 30.0032L49.8946 24.0066ZM61 35.5C61 29.2813 56.0637 24.2147 49.8946 24.0066L49.6924 30.0032C52.6382 30.1026 55 32.5262 55 35.5H61ZM55.4734 45.3284C58.7806 43.3152 61 39.6682 61 35.5H55C55 37.4883 53.9468 39.2334 52.3536 40.2033L55.4734 45.3284ZM50.1206 44.0207C50.7735 44.1573 51.3641 44.4767 51.835 44.9291L55.992 40.6025C54.732 39.392 53.1342 38.5211 51.3487 38.1478L50.1206 44.0207ZM44 39C45.8252 39 47.3721 40.225 47.8487 41.9036L53.6206 40.2649C52.4307 36.0741 48.5783 33 44 33V39ZM41.3937 39.9655C42.0954 39.3619 43.0016 39 44 39V33C41.5121 33 39.2297 33.9124 37.4807 35.417L41.3937 39.9655ZM34.6351 39.0001C35.7442 39.0001 36.7556 39.3836 37.5556 40.0278L41.3188 35.3547C39.4912 33.883 37.1622 33.0001 34.6351 33.0001V39.0001ZM30.1937 42.2377C30.7964 40.3562 32.5613 39.0001 34.6351 39.0001V33.0001C29.8774 33.0001 25.8548 36.1141 24.4796 40.4075L30.1937 42.2377ZM26.5384 45.5985C26.959 44.9304 27.5961 44.4148 28.3432 44.1487L26.3301 38.4965C24.2971 39.2206 22.5885 40.6109 21.461 42.4015L26.5384 45.5985ZM14.5 47H23.9997V41H14.5V47ZM3 35.5C3 41.8513 8.14873 47 14.5 47V41C11.4624 41 9 38.5376 9 35.5H3ZM10.0701 24.8842C5.91582 26.6198 3 30.7209 3 35.5H9C9 33.2205 10.3876 31.2542 12.383 30.4205L10.0701 24.8842ZM12.1237 24.0263L10.0701 24.8842L12.383 30.4205L14.4366 29.5625L12.1237 24.0263ZM10.0701 24.8842L10.2956 27.0984L16.2647 26.4904L16.0392 24.2763L10.0701 24.8842ZM10 23.5C10 23.9673 10.0237 24.4291 10.0701 24.8842L16.0392 24.2763C16.0134 24.0228 16 23.7639 16 23.5H10ZM23.5 10C16.0442 10 10 16.0442 10 23.5H16C16 19.3579 19.3579 16 23.5 16V10ZM34.7987 16.1087C32.3865 12.4288 28.2261 10 23.5 10V16C26.1215 16 28.4316 17.34 29.7807 19.398L34.7987 16.1087ZM23.0169 44H14.5V50H23.0169V44ZM14.5 44C9.80558 44 6 40.1944 6 35.5H0C0 43.5081 6.49187 50 14.5 50V44ZM6 35.5C6 31.9707 8.1517 28.937 11.2266 27.6524L8.91363 22.1161C3.68408 24.3009 0 29.4667 0 35.5H6ZM13.0547 24.5802C13.0186 24.226 13 23.8656 13 23.5H7C7 24.069 7.02892 24.6323 7.08554 25.1882L13.0547 24.5802ZM13 23.5C13 17.701 17.701 13 23.5 13V7C14.3873 7 7 14.3873 7 23.5H13ZM23.5 13C27.1738 13 30.4091 14.8844 32.2897 17.7534L37.3077 14.4641C34.3653 9.97531 29.2809 7 23.5 7V13ZM36.1437 18.7903C37.1501 18.2855 38.2874 18 39.5 18V12C37.3324 12 35.276 12.5131 33.4537 13.4271L36.1437 18.7903ZM39.5 18C43.2774 18 46.4071 20.7954 46.9246 24.4295L52.8647 23.5838C51.9321 17.0345 46.3066 12 39.5 12V18ZM49.7935 27.0049C54.351 27.1586 58 30.9038 58 35.5H64C64 27.6578 57.7754 21.2707 49.9957 21.0083L49.7935 27.0049ZM58 35.5C58 38.5524 56.3931 41.232 53.9647 42.7349L57.1222 47.8369C61.2436 45.2862 64 40.7162 64 35.5H58ZM52.7168 46.2909C52.8468 46.6565 52.9189 47.0531 52.9189 47.473H58.9189C58.9189 46.3586 58.7263 45.2827 58.3701 44.2808L52.7168 46.2909ZM52.9189 47.473C52.9189 49.4209 51.3398 51.0001 49.3919 51.0001V57.0001C54.6535 57.0001 58.9189 52.7347 58.9189 47.473H52.9189ZM49.3919 51.0001H29.527V57.0001H49.3919V51.0001ZM29.527 51.0001C27.5791 51.0001 26 49.421 26 47.473H20C20 52.7346 24.2654 57.0001 29.527 57.0001V51.0001ZM26 47.473C26 47.3855 26.0031 47.2993 26.0092 47.2143L20.0245 46.7857C20.0082 47.0132 20 47.2424 20 47.473H26Z" fill="#010101" mask="url(#path-1-inside-1_372_52)"/>
</svg>
