<svg width="64" height="64" viewBox="0 0 64 64" fill="none" xmlns="http://www.w3.org/2000/svg">
<path fill-rule="evenodd" clip-rule="evenodd" d="M24 11H40C42.7614 11 45 13.2386 45 16V48C45 50.7614 42.7614 53 40 53H24C21.2386 53 19 50.7614 19 48V16C19 13.2386 21.2386 11 24 11ZM16 16C16 11.5817 19.5817 8 24 8H40C44.4183 8 48 11.5817 48 16V48C48 52.4183 44.4183 56 40 56H24C19.5817 56 16 52.4183 16 48V16ZM28.5 14C27.6716 14 27 14.6716 27 15.5C27 16.3284 27.6716 17 28.5 17H35.5C36.3284 17 37 16.3284 37 15.5C37 14.6716 36.3284 14 35.5 14H28.5Z" fill="#010101"/>
</svg>
