<svg width="64" height="64" viewBox="0 0 64 64" fill="none" xmlns="http://www.w3.org/2000/svg">
<path fill-rule="evenodd" clip-rule="evenodd" d="M58 36V15C58 12.2386 55.7614 10 53 10L11 10C8.23857 10 6 12.2386 6 15L6 36H58ZM3 15V37.5V39C3 43.4183 6.58172 47 11 47H23.75L21.1538 53.2308C20.6049 54.5481 21.5728 56 23 56H40.7639C42.2507 56 43.2177 54.4354 42.5528 53.1056L39.5 47H53C57.4183 47 61 43.4183 61 39V37.5V15C61 10.5817 57.4183 7 53 7L11 7C6.58172 7 3 10.5817 3 15ZM36.1459 47H27L24.5 53H39.1459L36.1459 47ZM36.767 44H53C55.7614 44 58 41.7614 58 39L6 39C6 41.7614 8.23858 44 11 44H26.331C26.3318 44 26.3325 44 26.3333 44H36.7639C36.765 44 36.766 44 36.767 44Z" fill="#010101"/>
</svg>
